<svg width="54" height="17" viewBox="0 0 54 17" fill="none" xmlns="http://www.w3.org/2000/svg">
<path d="M6 1C9.31371 1 12 3.68629 12 7C12 10.3137 9.31371 13 6 13C2.68629 13 0 10.3137 0 7C0 3.68629 2.68629 1 6 1ZM6 3C3.79086 3 2 4.79086 2 7C2 9.20914 3.79086 11 6 11C8.20914 11 10 9.20914 10 7C10 4.79086 8.20914 3 6 3Z" fill="#ffffff"/>
<path d="M27.9492 6.5332V7.95508H26.1855V14.2305H24.4355V1.81641H26.1855V6.5332H27.9492ZM18.502 3.00586V9.74609C20.0947 9.72559 21.8037 9.5752 23.6016 9.21289L23.7793 10.6621C21.7012 11.0859 19.6777 11.1953 17.8457 11.1953H16.7656V3.00586H18.502ZM38.7598 1.83008V4.72852H40.4415V6.16406H38.7598V9.28125H37.0098V1.83008H38.7598ZM35.0411 2.56836V6.27344H31.0763V7.36719C33.1339 7.35352 34.5284 7.27148 36.1075 6.99805L36.2989 8.39258C34.5079 8.7207 32.9083 8.78906 30.3927 8.78906H29.3399V4.96094H33.3458V3.93555H29.3263V2.56836H35.0411ZM34.6583 9.52734C37.2423 9.52734 38.8829 10.4297 38.8829 11.9199C38.8829 13.3965 37.2423 14.2441 34.6583 14.2441C32.0196 14.2441 30.3927 13.3965 30.3927 11.9199C30.3927 10.4297 32.0196 9.52734 34.6583 9.52734ZM34.6583 10.8809C33.004 10.8809 32.1016 11.2227 32.1153 11.9199C32.1016 12.5898 33.004 12.9453 34.6583 12.9453C36.2989 12.9453 37.1602 12.5898 37.1602 11.9199C37.1602 11.2227 36.2989 10.8809 34.6583 10.8809ZM51.2248 1.81641V6.58789H52.9884V8.02344H51.2248V14.2305H49.4748V1.81641H51.2248ZM47.9025 3.08789C47.8888 6.80664 46.4396 10.0332 42.256 12.084L41.2716 10.7441C44.2179 9.26758 45.797 7.28516 46.1252 4.50977H41.9826V3.08789H47.9025Z" fill="#ffffff"/>
<path d="M10.5333 13.5045C10.6682 13.8021 10.5305 14.1535 10.2232 14.2643C8.93849 14.7272 7.579 14.976 6.20373 14.9983C4.82767 15.0207 3.45935 14.8161 2.15832 14.3948C1.84827 14.2944 1.69919 13.9488 1.82324 13.6474C1.94229 13.3581 2.26936 13.2176 2.56716 13.3132C3.7307 13.6871 4.95359 13.8685 6.18335 13.8485C7.41314 13.8285 8.62891 13.6073 9.77856 13.1959C10.0729 13.0905 10.4043 13.2198 10.5333 13.5045Z" fill="#ffffff"/>
</svg>
